<?xml version="1.0" encoding="UTF-8" standalone="no"?>
<!DOCTYPE svg PUBLIC "-//W3C//DTD SVG 1.1//EN"
 "http://www.w3.org/Graphics/SVG/1.1/DTD/svg11.dtd">
<!-- Generated by graphviz version 2.38.0 (20140413.2041)
 -->
<!-- Title: controllers_diagram Pages: 1 -->
<svg width="436pt" height="460pt"
 viewBox="0.00 0.00 436.42 460.00" xmlns="http://www.w3.org/2000/svg" xmlns:xlink="http://www.w3.org/1999/xlink">
<g id="graph0" class="graph" transform="scale(1 1) rotate(0) translate(105.731 337.5)">
<title>controllers_diagram</title>
<polygon fill="white" stroke="none" points="-105.731,122.5 -105.731,-337.5 330.688,-337.5 330.688,122.5 -105.731,122.5"/>
<!-- _diagram_info -->
<g id="node1" class="node"><title>_diagram_info</title>
<text text-anchor="start" x="127.312" y="59.9" font-family="Times,serif" font-size="13.00">Controllers diagram</text>
<text text-anchor="start" x="127.312" y="72.9" font-family="Times,serif" font-size="13.00">Date: Jan 09 2016 &#45; 00:20</text>
<text text-anchor="start" x="127.312" y="85.9" font-family="Times,serif" font-size="13.00">Migration version: 20150813031903</text>
<text text-anchor="start" x="127.312" y="98.9" font-family="Times,serif" font-size="13.00">Generated by RailRoady 1.3.0</text>
<text text-anchor="start" x="127.312" y="111.9" font-family="Times,serif" font-size="13.00">http://railroady.prestonlee.com</text>
</g>
<!-- Api::V1::PhotoPostsController -->
<g id="node2" class="node"><title>Api::V1::PhotoPostsController</title>
<path fill="none" stroke="black" d="M-89.731,84C-89.731,84 75.731,84 75.731,84 81.731,84 87.731,78 87.731,72 87.731,72 87.731,-64 87.731,-64 87.731,-70 81.731,-76 75.731,-76 75.731,-76 -89.731,-76 -89.731,-76 -95.731,-76 -101.731,-70 -101.731,-64 -101.731,-64 -101.731,72 -101.731,72 -101.731,78 -95.731,84 -89.731,84"/>
<text text-anchor="middle" x="-7" y="-60.8" font-family="Times,serif" font-size="14.00">Api::V1::PhotoPostsController</text>
<polyline fill="none" stroke="black" points="-101.731,-54 87.731,-54 "/>
<text text-anchor="start" x="-93.731" y="-38.8" font-family="Times,serif" font-size="14.00">create</text>
<text text-anchor="start" x="-93.731" y="-24.8" font-family="Times,serif" font-size="14.00">destroy</text>
<text text-anchor="start" x="-93.731" y="-10.8" font-family="Times,serif" font-size="14.00">index</text>
<text text-anchor="start" x="-93.731" y="3.2" font-family="Times,serif" font-size="14.00">new</text>
<text text-anchor="start" x="-93.731" y="17.2" font-family="Times,serif" font-size="14.00">show</text>
<polyline fill="none" stroke="black" points="-101.731,24 87.731,24 "/>
<polyline fill="none" stroke="black" points="-101.731,48 87.731,48 "/>
<text text-anchor="start" x="-93.731" y="63.2" font-family="Times,serif" font-size="14.00">_layout</text>
<text text-anchor="start" x="-93.731" y="77.2" font-family="Times,serif" font-size="14.00">photo_post_params</text>
</g>
<!-- Api::V1::SessionsController -->
<g id="node3" class="node"><title>Api::V1::SessionsController</title>
<path fill="none" stroke="black" d="M-89.7241,-103C-89.7241,-103 61.7241,-103 61.7241,-103 67.7241,-103 73.7241,-109 73.7241,-115 73.7241,-115 73.7241,-181 73.7241,-181 73.7241,-187 67.7241,-193 61.7241,-193 61.7241,-193 -89.7241,-193 -89.7241,-193 -95.7241,-193 -101.724,-187 -101.724,-181 -101.724,-181 -101.724,-115 -101.724,-115 -101.724,-109 -95.7241,-103 -89.7241,-103"/>
<text text-anchor="middle" x="-14" y="-177.8" font-family="Times,serif" font-size="14.00">Api::V1::SessionsController</text>
<polyline fill="none" stroke="black" points="-101.724,-171 73.7241,-171 "/>
<text text-anchor="start" x="-93.7241" y="-155.8" font-family="Times,serif" font-size="14.00">create</text>
<polyline fill="none" stroke="black" points="-101.724,-149 73.7241,-149 "/>
<polyline fill="none" stroke="black" points="-101.724,-125 73.7241,-125 "/>
<text text-anchor="start" x="-93.7241" y="-109.8" font-family="Times,serif" font-size="14.00">_layout</text>
</g>
<!-- ApplicationController -->
<g id="node4" class="node"><title>ApplicationController</title>
<path fill="none" stroke="black" d="M131.179,16C131.179,16 246.821,16 246.821,16 252.821,16 258.821,10 258.821,4 258.821,4 258.821,-64 258.821,-64 258.821,-70 252.821,-76 246.821,-76 246.821,-76 131.179,-76 131.179,-76 125.179,-76 119.179,-70 119.179,-64 119.179,-64 119.179,4 119.179,4 119.179,10 125.179,16 131.179,16"/>
<text text-anchor="middle" x="189" y="-60.8" font-family="Times,serif" font-size="14.00">ApplicationController</text>
<polyline fill="none" stroke="black" points="119.179,-54 258.821,-54 "/>
<polyline fill="none" stroke="black" points="119.179,-30 258.821,-30 "/>
<polyline fill="none" stroke="black" points="119.179,-6 258.821,-6 "/>
<text text-anchor="start" x="127.179" y="9.2" font-family="Times,serif" font-size="14.00">_layout</text>
</g>
<!-- PhotoPostsController -->
<g id="node5" class="node"><title>PhotoPostsController</title>
<path fill="none" stroke="black" d="M114.104,-103C114.104,-103 225.896,-103 225.896,-103 231.896,-103 237.896,-109 237.896,-115 237.896,-115 237.896,-321 237.896,-321 237.896,-327 231.896,-333 225.896,-333 225.896,-333 114.104,-333 114.104,-333 108.104,-333 102.104,-327 102.104,-321 102.104,-321 102.104,-115 102.104,-115 102.104,-109 108.104,-103 114.104,-103"/>
<text text-anchor="middle" x="170" y="-317.8" font-family="Times,serif" font-size="14.00">PhotoPostsController</text>
<polyline fill="none" stroke="black" points="102.104,-311 237.896,-311 "/>
<text text-anchor="start" x="110.104" y="-295.8" font-family="Times,serif" font-size="14.00">create</text>
<text text-anchor="start" x="110.104" y="-281.8" font-family="Times,serif" font-size="14.00">destroy</text>
<text text-anchor="start" x="110.104" y="-267.8" font-family="Times,serif" font-size="14.00">edit</text>
<text text-anchor="start" x="110.104" y="-253.8" font-family="Times,serif" font-size="14.00">index</text>
<text text-anchor="start" x="110.104" y="-239.8" font-family="Times,serif" font-size="14.00">new</text>
<text text-anchor="start" x="110.104" y="-225.8" font-family="Times,serif" font-size="14.00">show</text>
<text text-anchor="start" x="110.104" y="-211.8" font-family="Times,serif" font-size="14.00">tag</text>
<text text-anchor="start" x="110.104" y="-197.8" font-family="Times,serif" font-size="14.00">update</text>
<polyline fill="none" stroke="black" points="102.104,-191 237.896,-191 "/>
<polyline fill="none" stroke="black" points="102.104,-167 237.896,-167 "/>
<text text-anchor="start" x="110.104" y="-151.8" font-family="Times,serif" font-size="14.00">_layout</text>
<text text-anchor="start" x="110.104" y="-137.8" font-family="Times,serif" font-size="14.00">photo_post_params</text>
<text text-anchor="start" x="110.104" y="-123.8" font-family="Times,serif" font-size="14.00">set_photo_post</text>
<text text-anchor="start" x="110.104" y="-109.8" font-family="Times,serif" font-size="14.00">tag_cloud</text>
</g>
</g>
</svg>
