<?xml version="1.0" encoding="UTF-8" standalone="no"?>
<!DOCTYPE svg PUBLIC "-//W3C//DTD SVG 1.1//EN"
 "http://www.w3.org/Graphics/SVG/1.1/DTD/svg11.dtd">
<!-- Generated by graphviz version 2.38.0 (20140413.2041)
 -->
<!-- Title: models_diagram Pages: 1 -->
<svg width="630pt" height="363pt"
 viewBox="0.00 0.00 629.97 363.00" xmlns="http://www.w3.org/2000/svg" xmlns:xlink="http://www.w3.org/1999/xlink">
<g id="graph0" class="graph" transform="scale(1 1) rotate(0) translate(4 359)">
<title>models_diagram</title>
<polygon fill="white" stroke="none" points="-4,4 -4,-359 625.966,-359 625.966,4 -4,4"/>
<!-- _diagram_info -->
<g id="node1" class="node"><title>_diagram_info</title>
<text text-anchor="start" x="8" y="-242.6" font-family="Times,serif" font-size="13.00">Models diagram</text>
<text text-anchor="start" x="8" y="-229.6" font-family="Times,serif" font-size="13.00">Date: Jan 09 2016 &#45; 00:20</text>
<text text-anchor="start" x="8" y="-216.6" font-family="Times,serif" font-size="13.00">Migration version: 20150813031903</text>
<text text-anchor="start" x="8" y="-203.6" font-family="Times,serif" font-size="13.00">Generated by RailRoady 1.3.0</text>
<text text-anchor="start" x="8" y="-190.6" font-family="Times,serif" font-size="13.00">http://railroady.prestonlee.com</text>
</g>
<!-- PhotoPost -->
<g id="node2" class="node"><title>PhotoPost</title>
<path fill="none" stroke="black" d="M237.579,-142.5C237.579,-142.5 387.797,-142.5 387.797,-142.5 393.797,-142.5 399.797,-148.5 399.797,-154.5 399.797,-154.5 399.797,-286.5 399.797,-286.5 399.797,-292.5 393.797,-298.5 387.797,-298.5 387.797,-298.5 237.579,-298.5 237.579,-298.5 231.579,-298.5 225.579,-292.5 225.579,-286.5 225.579,-286.5 225.579,-154.5 225.579,-154.5 225.579,-148.5 231.579,-142.5 237.579,-142.5"/>
<text text-anchor="middle" x="312.688" y="-283.3" font-family="Times,serif" font-size="14.00">PhotoPost</text>
<polyline fill="none" stroke="black" points="225.579,-276.5 399.797,-276.5 "/>
<text text-anchor="start" x="233.579" y="-261.3" font-family="Times,serif" font-size="14.00">id :integer</text>
<text text-anchor="start" x="233.579" y="-247.3" font-family="Times,serif" font-size="14.00">title :string</text>
<text text-anchor="start" x="233.579" y="-233.3" font-family="Times,serif" font-size="14.00">description :text</text>
<text text-anchor="start" x="233.579" y="-219.3" font-family="Times,serif" font-size="14.00">created_at :datetime</text>
<text text-anchor="start" x="233.579" y="-205.3" font-family="Times,serif" font-size="14.00">updated_at :datetime</text>
<text text-anchor="start" x="233.579" y="-191.3" font-family="Times,serif" font-size="14.00">image_file_name :string</text>
<text text-anchor="start" x="233.579" y="-177.3" font-family="Times,serif" font-size="14.00">image_content_type :string</text>
<text text-anchor="start" x="233.579" y="-163.3" font-family="Times,serif" font-size="14.00">image_file_size :integer</text>
<text text-anchor="start" x="233.579" y="-149.3" font-family="Times,serif" font-size="14.00">image_updated_at :datetime</text>
</g>
<!-- ActsAsTaggableOn::Tagging -->
<g id="node4" class="node"><title>ActsAsTaggableOn::Tagging</title>
<ellipse fill="none" stroke="black" cx="197.688" cy="-18" rx="113.006" ry="18"/>
<text text-anchor="middle" x="197.688" y="-13.8" font-family="Times,serif" font-size="14.00">ActsAsTaggableOn::Tagging</text>
</g>
<!-- PhotoPost&#45;&gt;ActsAsTaggableOn::Tagging -->
<g id="edge1" class="edge"><title>PhotoPost&#45;&gt;ActsAsTaggableOn::Tagging</title>
<path fill="none" stroke="#3c4e0d" d="M257.295,-135.678C244.694,-118.617 230.829,-101.242 216.688,-86 208.225,-76.8786 200.503,-79.2772 195.246,-68 192.115,-61.2837 191.395,-53.4732 191.807,-46.0879"/>
<ellipse fill="none" stroke="#3c4e0d" cx="259.884" cy="-139.22" rx="4.00002" ry="4.00002"/>
<polygon fill="#3c4e0d" stroke="#3c4e0d" points="191.816,-46.0171 197.48,-36.6274 192.414,-41.053 193.012,-36.0889 193.012,-36.0889 193.012,-36.0889 192.414,-41.053 188.545,-35.5504 191.816,-46.0171 191.816,-46.0171"/>
<text text-anchor="middle" x="219.408" y="-56.8" font-family="Times,serif" font-size="14.00">taggings</text>
</g>
<!-- PhotoPost&#45;&gt;ActsAsTaggableOn::Tagging -->
<g id="edge3" class="edge"><title>PhotoPost&#45;&gt;ActsAsTaggableOn::Tagging</title>
<path fill="none" stroke="#5d9320" d="M286.361,-134.569C275.465,-107.228 261.013,-77.8593 242.688,-54 239.528,-49.8864 235.777,-45.9903 231.808,-42.395"/>
<ellipse fill="none" stroke="#5d9320" cx="287.889" cy="-138.493" rx="4.00001" ry="4.00001"/>
<polygon fill="#5d9320" stroke="#5d9320" points="231.678,-42.2869 226.892,-32.421 227.842,-39.0803 224.006,-35.8737 224.006,-35.8737 224.006,-35.8737 227.842,-39.0803 221.12,-39.3264 231.678,-42.2869 231.678,-42.2869"/>
<text text-anchor="middle" x="286.46" y="-56.8" font-family="Times,serif" font-size="14.00">tag_taggings</text>
</g>
<!-- ActsAsTaggableOn::Tag -->
<g id="node5" class="node"><title>ActsAsTaggableOn::Tag</title>
<ellipse fill="none" stroke="black" cx="432.688" cy="-18" rx="97.0617" ry="18"/>
<text text-anchor="middle" x="432.688" y="-13.8" font-family="Times,serif" font-size="14.00">ActsAsTaggableOn::Tag</text>
</g>
<!-- PhotoPost&#45;&gt;ActsAsTaggableOn::Tag -->
<g id="edge2" class="edge"><title>PhotoPost&#45;&gt;ActsAsTaggableOn::Tag</title>
<path fill="none" stroke="#1d03a3" d="M323.493,-132.244C330.407,-104.818 341.729,-75.989 360.26,-54 365.148,-48.2 371.222,-43.2857 377.759,-39.1422"/>
<polygon fill="#1d03a3" stroke="#1d03a3" points="323.425,-132.534 316.759,-141.241 322.283,-137.401 321.14,-142.269 321.14,-142.269 321.14,-142.269 322.283,-137.401 325.521,-143.297 323.425,-132.534 323.425,-132.534"/>
<polygon fill="#1d03a3" stroke="#1d03a3" points="378.194,-38.895 389.112,-37.8728 382.543,-36.4271 386.891,-33.9591 386.891,-33.9591 386.891,-33.9591 382.543,-36.4271 384.67,-30.0455 378.194,-38.895 378.194,-38.895"/>
<text text-anchor="middle" x="386.902" y="-56.8" font-family="Times,serif" font-size="14.00">base_tags</text>
</g>
<!-- PhotoPost&#45;&gt;ActsAsTaggableOn::Tag -->
<g id="edge4" class="edge"><title>PhotoPost&#45;&gt;ActsAsTaggableOn::Tag</title>
<path fill="none" stroke="#01d7e6" d="M375.613,-133.745C389.493,-112.822 403.404,-90.0874 414.688,-68 418.259,-61.0088 421.475,-53.1385 424.166,-45.7844"/>
<polygon fill="#01d7e6" stroke="#01d7e6" points="375.456,-133.98 366.148,-139.777 372.67,-138.132 369.885,-142.284 369.885,-142.284 369.885,-142.284 372.67,-138.132 373.622,-144.791 375.456,-133.98 375.456,-133.98"/>
<polygon fill="#01d7e6" stroke="#01d7e6" points="424.212,-45.6527 431.746,-37.685 425.854,-40.93 427.496,-36.2073 427.496,-36.2073 427.496,-36.2073 425.854,-40.93 423.245,-34.7295 424.212,-45.6527 424.212,-45.6527"/>
<text text-anchor="middle" x="430.964" y="-56.8" font-family="Times,serif" font-size="14.00">tags</text>
</g>
<!-- User -->
<g id="node3" class="node"><title>User</title>
<path fill="none" stroke="black" d="M429.41,-86.5C429.41,-86.5 609.966,-86.5 609.966,-86.5 615.966,-86.5 621.966,-92.5 621.966,-98.5 621.966,-98.5 621.966,-342.5 621.966,-342.5 621.966,-348.5 615.966,-354.5 609.966,-354.5 609.966,-354.5 429.41,-354.5 429.41,-354.5 423.41,-354.5 417.41,-348.5 417.41,-342.5 417.41,-342.5 417.41,-98.5 417.41,-98.5 417.41,-92.5 423.41,-86.5 429.41,-86.5"/>
<text text-anchor="middle" x="519.688" y="-339.3" font-family="Times,serif" font-size="14.00">User</text>
<polyline fill="none" stroke="black" points="417.41,-332.5 621.966,-332.5 "/>
<text text-anchor="start" x="425.41" y="-317.3" font-family="Times,serif" font-size="14.00">id :integer</text>
<text text-anchor="start" x="425.41" y="-303.3" font-family="Times,serif" font-size="14.00">email :string</text>
<text text-anchor="start" x="425.41" y="-289.3" font-family="Times,serif" font-size="14.00">encrypted_password :string</text>
<text text-anchor="start" x="425.41" y="-275.3" font-family="Times,serif" font-size="14.00">reset_password_token :string</text>
<text text-anchor="start" x="425.41" y="-261.3" font-family="Times,serif" font-size="14.00">reset_password_sent_at :datetime</text>
<text text-anchor="start" x="425.41" y="-247.3" font-family="Times,serif" font-size="14.00">remember_created_at :datetime</text>
<text text-anchor="start" x="425.41" y="-233.3" font-family="Times,serif" font-size="14.00">sign_in_count :integer</text>
<text text-anchor="start" x="425.41" y="-219.3" font-family="Times,serif" font-size="14.00">current_sign_in_at :datetime</text>
<text text-anchor="start" x="425.41" y="-205.3" font-family="Times,serif" font-size="14.00">last_sign_in_at :datetime</text>
<text text-anchor="start" x="425.41" y="-191.3" font-family="Times,serif" font-size="14.00">current_sign_in_ip :string</text>
<text text-anchor="start" x="425.41" y="-177.3" font-family="Times,serif" font-size="14.00">last_sign_in_ip :string</text>
<text text-anchor="start" x="425.41" y="-163.3" font-family="Times,serif" font-size="14.00">created_at :datetime</text>
<text text-anchor="start" x="425.41" y="-149.3" font-family="Times,serif" font-size="14.00">updated_at :datetime</text>
<text text-anchor="start" x="425.41" y="-135.3" font-family="Times,serif" font-size="14.00">confirmation_token :string</text>
<text text-anchor="start" x="425.41" y="-121.3" font-family="Times,serif" font-size="14.00">confirmed_at :datetime</text>
<text text-anchor="start" x="425.41" y="-107.3" font-family="Times,serif" font-size="14.00">confirmation_sent_at :datetime</text>
<text text-anchor="start" x="425.41" y="-93.3" font-family="Times,serif" font-size="14.00">unconfirmed_email :string</text>
</g>
</g>
</svg>
