<?xml version="1.0" encoding="UTF-8" standalone="no"?>
<!DOCTYPE svg PUBLIC "-//W3C//DTD SVG 1.1//EN"
 "http://www.w3.org/Graphics/SVG/1.1/DTD/svg11.dtd">
<!-- Generated by graphviz version 2.38.0 (20140413.2041)
 -->
<!-- Title: models_diagram Pages: 1 -->
<svg width="497pt" height="167pt"
 viewBox="0.00 0.00 496.97 167.00" xmlns="http://www.w3.org/2000/svg" xmlns:xlink="http://www.w3.org/1999/xlink">
<g id="graph0" class="graph" transform="scale(1 1) rotate(0) translate(4 163)">
<title>models_diagram</title>
<polygon fill="white" stroke="none" points="-4,4 -4,-163 492.968,-163 492.968,4 -4,4"/>
<!-- _diagram_info -->
<g id="node1" class="node"><title>_diagram_info</title>
<text text-anchor="start" x="8" y="-144.6" font-family="Times,serif" font-size="13.00">Models diagram</text>
<text text-anchor="start" x="8" y="-131.6" font-family="Times,serif" font-size="13.00">Date: Jan 09 2016 &#45; 00:20</text>
<text text-anchor="start" x="8" y="-118.6" font-family="Times,serif" font-size="13.00">Migration version: 20150813031903</text>
<text text-anchor="start" x="8" y="-105.6" font-family="Times,serif" font-size="13.00">Generated by RailRoady 1.3.0</text>
<text text-anchor="start" x="8" y="-92.6" font-family="Times,serif" font-size="13.00">http://railroady.prestonlee.com</text>
</g>
<!-- PhotoPost -->
<g id="node2" class="node"><title>PhotoPost</title>
<ellipse fill="none" stroke="black" cx="271.688" cy="-122.5" rx="45.9718" ry="18"/>
<text text-anchor="middle" x="271.688" y="-118.3" font-family="Times,serif" font-size="14.00">PhotoPost</text>
</g>
<!-- ActsAsTaggableOn::Tagging -->
<g id="node4" class="node"><title>ActsAsTaggableOn::Tagging</title>
<ellipse fill="none" stroke="black" cx="156.688" cy="-18" rx="113.006" ry="18"/>
<text text-anchor="middle" x="156.688" y="-13.8" font-family="Times,serif" font-size="14.00">ActsAsTaggableOn::Tagging</text>
</g>
<!-- PhotoPost&#45;&gt;ActsAsTaggableOn::Tagging -->
<g id="edge1" class="edge"><title>PhotoPost&#45;&gt;ActsAsTaggableOn::Tagging</title>
<path fill="none" stroke="#cc6912" d="M244.7,-101.849C236.053,-96.1723 226.238,-90.3444 216.688,-86 190.398,-74.041 171.612,-91.0783 154.246,-68 149.546,-61.7534 148.53,-53.6875 149.16,-45.9098"/>
<ellipse fill="none" stroke="#cc6912" cx="248.04" cy="-104.101" rx="4.00002" ry="4.00002"/>
<polygon fill="#cc6912" stroke="#cc6912" points="149.162,-45.8991 155.208,-36.7504 149.964,-40.9638 150.766,-36.0286 150.766,-36.0286 150.766,-36.0286 149.964,-40.9638 146.324,-35.3067 149.162,-45.8991 149.162,-45.8991"/>
<text text-anchor="middle" x="178.408" y="-56.8" font-family="Times,serif" font-size="14.00">taggings</text>
</g>
<!-- PhotoPost&#45;&gt;ActsAsTaggableOn::Tagging -->
<g id="edge3" class="edge"><title>PhotoPost&#45;&gt;ActsAsTaggableOn::Tagging</title>
<path fill="none" stroke="#87ccd8" d="M250.123,-99.5472C236.561,-86.0361 218.504,-68.575 201.688,-54 197.184,-50.0964 192.309,-46.0926 187.487,-42.2518"/>
<ellipse fill="none" stroke="#87ccd8" cx="253.191" cy="-102.621" rx="4.00002" ry="4.00002"/>
<polygon fill="#87ccd8" stroke="#87ccd8" points="187.366,-42.1574 182.272,-32.4466 183.431,-39.0728 179.496,-35.9883 179.496,-35.9883 179.496,-35.9883 183.431,-39.0728 176.72,-39.53 187.366,-42.1574 187.366,-42.1574"/>
<text text-anchor="middle" x="251.46" y="-56.8" font-family="Times,serif" font-size="14.00">tag_taggings</text>
</g>
<!-- ActsAsTaggableOn::Tag -->
<g id="node5" class="node"><title>ActsAsTaggableOn::Tag</title>
<ellipse fill="none" stroke="black" cx="391.688" cy="-18" rx="97.0617" ry="18"/>
<text text-anchor="middle" x="391.688" y="-13.8" font-family="Times,serif" font-size="14.00">ActsAsTaggableOn::Tag</text>
</g>
<!-- PhotoPost&#45;&gt;ActsAsTaggableOn::Tag -->
<g id="edge2" class="edge"><title>PhotoPost&#45;&gt;ActsAsTaggableOn::Tag</title>
<path fill="none" stroke="#5c4ae6" d="M285.549,-95.7119C293.908,-81.9907 305.58,-65.6046 319.26,-54 325.992,-48.2894 333.815,-43.2649 341.78,-38.936"/>
<polygon fill="#5c4ae6" stroke="#5c4ae6" points="285.348,-96.057 276.421,-102.426 282.828,-100.376 280.308,-104.694 280.308,-104.694 280.308,-104.694 282.828,-100.376 284.194,-106.962 285.348,-96.057 285.348,-96.057"/>
<polygon fill="#5c4ae6" stroke="#5c4ae6" points="341.875,-38.888 352.827,-38.3533 346.329,-36.6163 350.783,-34.3446 350.783,-34.3446 350.783,-34.3446 346.329,-36.6163 348.738,-30.3358 341.875,-38.888 341.875,-38.888"/>
<text text-anchor="middle" x="345.902" y="-56.8" font-family="Times,serif" font-size="14.00">base_tags</text>
</g>
<!-- PhotoPost&#45;&gt;ActsAsTaggableOn::Tag -->
<g id="edge4" class="edge"><title>PhotoPost&#45;&gt;ActsAsTaggableOn::Tag</title>
<path fill="none" stroke="#e82e92" d="M301.149,-100.891C309.23,-95.6829 318.128,-90.3422 326.688,-86 346.636,-75.8804 357.98,-83.9248 373.688,-68 379.595,-62.0116 383.584,-53.9248 386.271,-46.0482"/>
<polygon fill="#e82e92" stroke="#e82e92" points="301.099,-100.924 290.275,-102.682 296.927,-103.68 292.755,-106.436 292.755,-106.436 292.755,-106.436 296.927,-103.68 295.236,-110.191 301.099,-100.924 301.099,-100.924"/>
<polygon fill="#e82e92" stroke="#e82e92" points="386.291,-45.977 393.351,-37.5866 387.657,-41.1672 389.022,-36.3573 389.022,-36.3573 389.022,-36.3573 387.657,-41.1672 384.694,-35.1281 386.291,-45.977 386.291,-45.977"/>
<text text-anchor="middle" x="393.964" y="-56.8" font-family="Times,serif" font-size="14.00">tags</text>
</g>
<!-- User -->
<g id="node3" class="node"><title>User</title>
<ellipse fill="none" stroke="black" cx="362.688" cy="-122.5" rx="27" ry="18"/>
<text text-anchor="middle" x="362.688" y="-118.3" font-family="Times,serif" font-size="14.00">User</text>
</g>
</g>
</svg>
